solid OpenSCAD_Model
  facet normal 0 0 -1
    outer loop
      vertex -7 0 0
      vertex -6.71645 1.97213 0
      vertex -6.71645 -1.97213 0
    endloop
  endfacet
  facet normal 0 0 -1
    outer loop
      vertex -6.71645 -1.97213 0
      vertex -6.71645 1.97213 0
      vertex -5.88877 3.78449 0
    endloop
  endfacet
  facet normal 0 0 -1
    outer loop
      vertex -6.71645 -1.97213 0
      vertex -5.88877 3.78449 0
      vertex -4.58402 5.29025 0
    endloop
  endfacet
  facet normal 0 0 -1
    outer loop
      vertex -6.71645 -1.97213 0
      vertex -4.58402 5.29025 0
      vertex -2.9079 6.36742 0
    endloop
  endfacet
  facet normal 0 0 -1
    outer loop
      vertex -6.71645 -1.97213 0
      vertex -2.9079 6.36742 0
      vertex -0.996204 6.92875 0
    endloop
  endfacet
  facet normal 0 0 -1
    outer loop
      vertex -6.71645 -1.97213 0
      vertex -0.996204 6.92875 0
      vertex 0.996204 6.92875 0
    endloop
  endfacet
  facet normal 0 0 -1
    outer loop
      vertex -0.498102 3.46437 0
      vertex 0.996204 6.92875 0
      vertex 2.9079 6.36742 0
    endloop
  endfacet
  facet normal 0 0 -1
    outer loop
      vertex 2.94439 1.89224 0
      vertex 17.5 3.5 0
      vertex 3.5 0 0
    endloop
  endfacet
  facet normal 0 0 -1
    outer loop
      vertex 1.45395 3.18371 0
      vertex 4.58402 5.29025 0
      vertex 5.88877 3.78449 0
    endloop
  endfacet
  facet normal 0 0 -1
    outer loop
      vertex 1.45395 3.18371 0
      vertex 6.0187 3.5 0
      vertex 2.94439 1.89224 0
    endloop
  endfacet
  facet normal 0 0 -1
    outer loop
      vertex 2.94439 1.89224 0
      vertex 6.0187 3.5 0
      vertex 17.5 3.5 0
    endloop
  endfacet
  facet normal 0 0 -1
    outer loop
      vertex 2.94439 -1.89224 0
      vertex 17.5 3.5 0
      vertex 17.5 -3.5 0
    endloop
  endfacet
  facet normal 0 0 -1
    outer loop
      vertex 1.45395 -3.18371 0
      vertex 5.88877 -3.78449 0
      vertex 4.58402 -5.29025 0
    endloop
  endfacet
  facet normal 0 0 -1
    outer loop
      vertex -6.71645 -1.97213 0
      vertex 4.58402 -5.29025 0
      vertex 2.9079 -6.36742 0
    endloop
  endfacet
  facet normal 0 0 -1
    outer loop
      vertex -6.71645 -1.97213 0
      vertex 2.9079 -6.36742 0
      vertex 0.996204 -6.92875 0
    endloop
  endfacet
  facet normal 0 0 -1
    outer loop
      vertex -6.71645 -1.97213 0
      vertex 0.996204 -6.92875 0
      vertex -0.996204 -6.92875 0
    endloop
  endfacet
  facet normal 0 0 -1
    outer loop
      vertex -6.71645 -1.97213 0
      vertex -0.996204 -6.92875 0
      vertex -2.9079 -6.36742 0
    endloop
  endfacet
  facet normal 0 0 -1
    outer loop
      vertex -6.71645 -1.97213 0
      vertex -2.9079 -6.36742 0
      vertex -4.58402 -5.29025 0
    endloop
  endfacet
  facet normal 0 0 -1
    outer loop
      vertex -6.71645 -1.97213 0
      vertex -4.58402 -5.29025 0
      vertex -5.88877 -3.78449 0
    endloop
  endfacet
  facet normal 0 0 -1
    outer loop
      vertex -2.29201 -2.64512 0
      vertex -6.71645 -1.97213 0
      vertex -3.35823 -0.986064 0
    endloop
  endfacet
  facet normal 0 0 -1
    outer loop
      vertex 1.45395 -3.18371 0
      vertex 4.58402 -5.29025 0
      vertex -0.498102 -3.46437 0
    endloop
  endfacet
  facet normal 0 0 -1
    outer loop
      vertex 2.94439 -1.89224 0
      vertex 5.88877 -3.78449 0
      vertex 1.45395 -3.18371 0
    endloop
  endfacet
  facet normal 0 0 -1
    outer loop
      vertex -6.71645 -1.97213 0
      vertex -2.29201 -2.64512 0
      vertex -0.498102 -3.46437 0
    endloop
  endfacet
  facet normal 0 0 -1
    outer loop
      vertex -6.71645 -1.97213 0
      vertex -0.498102 -3.46437 0
      vertex 4.58402 -5.29025 0
    endloop
  endfacet
  facet normal 0 0 -1
    outer loop
      vertex 2.94439 -1.89224 0
      vertex 6.0187 -3.5 0
      vertex 5.88877 -3.78449 0
    endloop
  endfacet
  facet normal 0 0 -1
    outer loop
      vertex 3.5 0 0
      vertex 17.5 3.5 0
      vertex 2.94439 -1.89224 0
    endloop
  endfacet
  facet normal 0 0 -1
    outer loop
      vertex 1.45395 3.18371 0
      vertex 5.88877 3.78449 0
      vertex 6.0187 3.5 0
    endloop
  endfacet
  facet normal 0 0 -1
    outer loop
      vertex 2.94439 -1.89224 0
      vertex 17.5 -3.5 0
      vertex 6.0187 -3.5 0
    endloop
  endfacet
  facet normal 0 0 -1
    outer loop
      vertex -2.29201 2.64512 0
      vertex 0.996204 6.92875 0
      vertex -0.498102 3.46437 0
    endloop
  endfacet
  facet normal 0 0 -1
    outer loop
      vertex -6.71645 -1.97213 0
      vertex 0.996204 6.92875 0
      vertex -2.29201 2.64512 0
    endloop
  endfacet
  facet normal 0 0 -1
    outer loop
      vertex -6.71645 -1.97213 0
      vertex -2.29201 2.64512 0
      vertex -3.35823 0.986064 0
    endloop
  endfacet
  facet normal 0 0 -1
    outer loop
      vertex -3.35823 -0.986064 0
      vertex -6.71645 -1.97213 0
      vertex -3.35823 0.986064 0
    endloop
  endfacet
  facet normal 0 0 -1
    outer loop
      vertex -0.498102 3.46437 0
      vertex 2.9079 6.36742 0
      vertex 4.58402 5.29025 0
    endloop
  endfacet
  facet normal 0 0 -1
    outer loop
      vertex -0.498102 3.46437 0
      vertex 4.58402 5.29025 0
      vertex 1.45395 3.18371 0
    endloop
  endfacet
  facet normal -0.989821 0.142315 0
    outer loop
      vertex -7 0 0
      vertex -7 0 7
      vertex -6.71645 1.97213 0
    endloop
  endfacet
  facet normal -0.989821 0.142315 0
    outer loop
      vertex -6.71645 1.97213 0
      vertex -7 0 7
      vertex -6.71645 1.97213 7
    endloop
  endfacet
  facet normal -0.989821 -0.142315 0
    outer loop
      vertex -7 0 0
      vertex -6.71645 -1.97213 0
      vertex -7 0 7
    endloop
  endfacet
  facet normal -0.989821 -0.142315 0
    outer loop
      vertex -7 0 7
      vertex -6.71645 -1.97213 0
      vertex -6.71645 -1.97213 7
    endloop
  endfacet
  facet normal -0.909632 -0.415415 0
    outer loop
      vertex -6.71645 -1.97213 0
      vertex -5.88877 -3.78449 0
      vertex -6.71645 -1.97213 7
    endloop
  endfacet
  facet normal -0.909632 -0.415415 0
    outer loop
      vertex -6.71645 -1.97213 7
      vertex -5.88877 -3.78449 0
      vertex -5.88877 -3.78449 7
    endloop
  endfacet
  facet normal -0.755749 -0.654861 0
    outer loop
      vertex -5.88877 -3.78449 0
      vertex -4.58402 -5.29025 0
      vertex -5.88877 -3.78449 7
    endloop
  endfacet
  facet normal -0.755749 -0.654861 0
    outer loop
      vertex -5.88877 -3.78449 7
      vertex -4.58402 -5.29025 0
      vertex -4.58402 -5.29025 7
    endloop
  endfacet
  facet normal -0.540641 -0.841254 0
    outer loop
      vertex -4.58402 -5.29025 7
      vertex -4.58402 -5.29025 0
      vertex -2.9079 -6.36742 0
    endloop
  endfacet
  facet normal -0.540641 -0.841254 0
    outer loop
      vertex -2.9079 -6.36742 7
      vertex -4.58402 -5.29025 7
      vertex -2.9079 -6.36742 0
    endloop
  endfacet
  facet normal -0.281733 -0.959493 0
    outer loop
      vertex -2.9079 -6.36742 7
      vertex -2.9079 -6.36742 0
      vertex -0.996204 -6.92875 0
    endloop
  endfacet
  facet normal -0.281733 -0.959493 0
    outer loop
      vertex -0.996204 -6.92875 7
      vertex -2.9079 -6.36742 7
      vertex -0.996204 -6.92875 0
    endloop
  endfacet
  facet normal 0 -1 0
    outer loop
      vertex -0.996204 -6.92875 7
      vertex -0.996204 -6.92875 0
      vertex 0.996204 -6.92875 0
    endloop
  endfacet
  facet normal 0 -1 0
    outer loop
      vertex 0.996204 -6.92875 7
      vertex -0.996204 -6.92875 7
      vertex 0.996204 -6.92875 0
    endloop
  endfacet
  facet normal 0.281733 -0.959493 0
    outer loop
      vertex 0.996204 -6.92875 7
      vertex 0.996204 -6.92875 0
      vertex 2.9079 -6.36742 0
    endloop
  endfacet
  facet normal 0.281733 -0.959493 0
    outer loop
      vertex 2.9079 -6.36742 7
      vertex 0.996204 -6.92875 7
      vertex 2.9079 -6.36742 0
    endloop
  endfacet
  facet normal 0.540641 -0.841254 0
    outer loop
      vertex 2.9079 -6.36742 7
      vertex 2.9079 -6.36742 0
      vertex 4.58402 -5.29025 0
    endloop
  endfacet
  facet normal 0.540641 -0.841254 0
    outer loop
      vertex 4.58402 -5.29025 7
      vertex 2.9079 -6.36742 7
      vertex 4.58402 -5.29025 0
    endloop
  endfacet
  facet normal 0.755749 -0.654861 0
    outer loop
      vertex 4.58402 -5.29025 7
      vertex 4.58402 -5.29025 0
      vertex 5.88877 -3.78449 0
    endloop
  endfacet
  facet normal 0.755749 -0.654861 0
    outer loop
      vertex 5.88877 -3.78449 7
      vertex 4.58402 -5.29025 7
      vertex 5.88877 -3.78449 0
    endloop
  endfacet
  facet normal 0.909632 -0.415415 0
    outer loop
      vertex 5.88877 -3.78449 7
      vertex 5.88877 -3.78449 0
      vertex 6.0187 -3.5 0
    endloop
  endfacet
  facet normal 0.909632 -0.415415 0
    outer loop
      vertex 6.0187 -3.5 7
      vertex 5.88877 -3.78449 7
      vertex 6.0187 -3.5 0
    endloop
  endfacet
  facet normal 0 -1 0
    outer loop
      vertex 6.0187 -3.5 7
      vertex 6.0187 -3.5 0
      vertex 17.5 -3.5 0
    endloop
  endfacet
  facet normal 0 -1 0
    outer loop
      vertex 17.5 -3.5 7
      vertex 6.0187 -3.5 7
      vertex 17.5 -3.5 0
    endloop
  endfacet
  facet normal 1 0 0
    outer loop
      vertex 17.5 -3.5 7
      vertex 17.5 -3.5 0
      vertex 17.5 3.5 0
    endloop
  endfacet
  facet normal 1 0 0
    outer loop
      vertex 17.5 3.5 7
      vertex 17.5 -3.5 7
      vertex 17.5 3.5 0
    endloop
  endfacet
  facet normal 0 1 0
    outer loop
      vertex 6.0187 3.5 0
      vertex 6.0187 3.5 7
      vertex 17.5 3.5 0
    endloop
  endfacet
  facet normal 0 1 0
    outer loop
      vertex 17.5 3.5 0
      vertex 6.0187 3.5 7
      vertex 17.5 3.5 7
    endloop
  endfacet
  facet normal 0.909632 0.415415 0
    outer loop
      vertex 6.0187 3.5 0
      vertex 5.88877 3.78449 0
      vertex 5.88877 3.78449 7
    endloop
  endfacet
  facet normal 0.909632 0.415415 0
    outer loop
      vertex 6.0187 3.5 7
      vertex 6.0187 3.5 0
      vertex 5.88877 3.78449 7
    endloop
  endfacet
  facet normal 0.755749 0.654861 0
    outer loop
      vertex 5.88877 3.78449 0
      vertex 4.58402 5.29025 0
      vertex 4.58402 5.29025 7
    endloop
  endfacet
  facet normal 0.755749 0.654861 0
    outer loop
      vertex 5.88877 3.78449 7
      vertex 5.88877 3.78449 0
      vertex 4.58402 5.29025 7
    endloop
  endfacet
  facet normal 0.540641 0.841254 0
    outer loop
      vertex 2.9079 6.36742 0
      vertex 2.9079 6.36742 7
      vertex 4.58402 5.29025 0
    endloop
  endfacet
  facet normal 0.540641 0.841254 0
    outer loop
      vertex 4.58402 5.29025 0
      vertex 2.9079 6.36742 7
      vertex 4.58402 5.29025 7
    endloop
  endfacet
  facet normal 0.281733 0.959493 0
    outer loop
      vertex 0.996204 6.92875 0
      vertex 0.996204 6.92875 7
      vertex 2.9079 6.36742 0
    endloop
  endfacet
  facet normal 0.281733 0.959493 0
    outer loop
      vertex 2.9079 6.36742 0
      vertex 0.996204 6.92875 7
      vertex 2.9079 6.36742 7
    endloop
  endfacet
  facet normal 0 1 0
    outer loop
      vertex -0.996204 6.92875 0
      vertex -0.996204 6.92875 7
      vertex 0.996204 6.92875 0
    endloop
  endfacet
  facet normal 0 1 0
    outer loop
      vertex 0.996204 6.92875 0
      vertex -0.996204 6.92875 7
      vertex 0.996204 6.92875 7
    endloop
  endfacet
  facet normal -0.281733 0.959493 0
    outer loop
      vertex -2.9079 6.36742 0
      vertex -2.9079 6.36742 7
      vertex -0.996204 6.92875 0
    endloop
  endfacet
  facet normal -0.281733 0.959493 0
    outer loop
      vertex -0.996204 6.92875 0
      vertex -2.9079 6.36742 7
      vertex -0.996204 6.92875 7
    endloop
  endfacet
  facet normal -0.540641 0.841254 0
    outer loop
      vertex -4.58402 5.29025 0
      vertex -4.58402 5.29025 7
      vertex -2.9079 6.36742 0
    endloop
  endfacet
  facet normal -0.540641 0.841254 0
    outer loop
      vertex -2.9079 6.36742 0
      vertex -4.58402 5.29025 7
      vertex -2.9079 6.36742 7
    endloop
  endfacet
  facet normal -0.755749 0.654861 0
    outer loop
      vertex -5.88877 3.78449 0
      vertex -5.88877 3.78449 7
      vertex -4.58402 5.29025 0
    endloop
  endfacet
  facet normal -0.755749 0.654861 0
    outer loop
      vertex -4.58402 5.29025 0
      vertex -5.88877 3.78449 7
      vertex -4.58402 5.29025 7
    endloop
  endfacet
  facet normal -0.909632 0.415415 0
    outer loop
      vertex -6.71645 1.97213 0
      vertex -6.71645 1.97213 7
      vertex -5.88877 3.78449 0
    endloop
  endfacet
  facet normal -0.909632 0.415415 0
    outer loop
      vertex -5.88877 3.78449 0
      vertex -6.71645 1.97213 7
      vertex -5.88877 3.78449 7
    endloop
  endfacet
  facet normal 1 0 0
    outer loop
      vertex -3.35823 0.986064 0
      vertex -3.35823 0.986064 7
      vertex -3.35823 -0.986064 7
    endloop
  endfacet
  facet normal 1 0 0
    outer loop
      vertex -3.35823 -0.986064 0
      vertex -3.35823 0.986064 0
      vertex -3.35823 -0.986064 7
    endloop
  endfacet
  facet normal 0.841254 -0.54064 0
    outer loop
      vertex -2.29201 2.64512 0
      vertex -2.29201 2.64512 7
      vertex -3.35823 0.986064 7
    endloop
  endfacet
  facet normal 0.841254 -0.54064 0
    outer loop
      vertex -3.35823 0.986064 0
      vertex -2.29201 2.64512 0
      vertex -3.35823 0.986064 7
    endloop
  endfacet
  facet normal 0.415415 -0.909632 0
    outer loop
      vertex -0.498102 3.46437 0
      vertex -0.498102 3.46437 7
      vertex -2.29201 2.64512 7
    endloop
  endfacet
  facet normal 0.415415 -0.909632 0
    outer loop
      vertex -2.29201 2.64512 0
      vertex -0.498102 3.46437 0
      vertex -2.29201 2.64512 7
    endloop
  endfacet
  facet normal -0.142315 -0.989821 0
    outer loop
      vertex 1.45395 3.18371 0
      vertex 1.45395 3.18371 7
      vertex -0.498102 3.46437 7
    endloop
  endfacet
  facet normal -0.142315 -0.989821 0
    outer loop
      vertex -0.498102 3.46437 0
      vertex 1.45395 3.18371 0
      vertex -0.498102 3.46437 7
    endloop
  endfacet
  facet normal -0.654861 -0.755749 0
    outer loop
      vertex 2.94439 1.89224 0
      vertex 2.94439 1.89224 7
      vertex 1.45395 3.18371 7
    endloop
  endfacet
  facet normal -0.654861 -0.755749 0
    outer loop
      vertex 1.45395 3.18371 0
      vertex 2.94439 1.89224 0
      vertex 1.45395 3.18371 7
    endloop
  endfacet
  facet normal -0.959493 -0.281733 0
    outer loop
      vertex 3.5 0 7
      vertex 2.94439 1.89224 7
      vertex 3.5 0 0
    endloop
  endfacet
  facet normal -0.959493 -0.281733 0
    outer loop
      vertex 3.5 0 0
      vertex 2.94439 1.89224 7
      vertex 2.94439 1.89224 0
    endloop
  endfacet
  facet normal -0.959493 0.281733 0
    outer loop
      vertex 3.5 0 7
      vertex 3.5 0 0
      vertex 2.94439 -1.89224 7
    endloop
  endfacet
  facet normal -0.959493 0.281733 0
    outer loop
      vertex 2.94439 -1.89224 7
      vertex 3.5 0 0
      vertex 2.94439 -1.89224 0
    endloop
  endfacet
  facet normal -0.654861 0.755749 0
    outer loop
      vertex 2.94439 -1.89224 7
      vertex 2.94439 -1.89224 0
      vertex 1.45395 -3.18371 7
    endloop
  endfacet
  facet normal -0.654861 0.755749 0
    outer loop
      vertex 1.45395 -3.18371 7
      vertex 2.94439 -1.89224 0
      vertex 1.45395 -3.18371 0
    endloop
  endfacet
  facet normal -0.142315 0.989821 0
    outer loop
      vertex 1.45395 -3.18371 7
      vertex 1.45395 -3.18371 0
      vertex -0.498102 -3.46437 7
    endloop
  endfacet
  facet normal -0.142315 0.989821 0
    outer loop
      vertex -0.498102 -3.46437 7
      vertex 1.45395 -3.18371 0
      vertex -0.498102 -3.46437 0
    endloop
  endfacet
  facet normal 0.415415 0.909632 0
    outer loop
      vertex -0.498102 -3.46437 7
      vertex -0.498102 -3.46437 0
      vertex -2.29201 -2.64512 7
    endloop
  endfacet
  facet normal 0.415415 0.909632 0
    outer loop
      vertex -2.29201 -2.64512 7
      vertex -0.498102 -3.46437 0
      vertex -2.29201 -2.64512 0
    endloop
  endfacet
  facet normal 0.841254 0.54064 0
    outer loop
      vertex -3.35823 -0.986064 7
      vertex -2.29201 -2.64512 7
      vertex -2.29201 -2.64512 0
    endloop
  endfacet
  facet normal 0.841254 0.54064 0
    outer loop
      vertex -3.35823 -0.986064 0
      vertex -3.35823 -0.986064 7
      vertex -2.29201 -2.64512 0
    endloop
  endfacet
  facet normal 0 0 1
    outer loop
      vertex -6.71645 1.97213 7
      vertex -7 0 7
      vertex -6.71645 -1.97213 7
    endloop
  endfacet
  facet normal 0 0 1
    outer loop
      vertex -4.58402 -5.29025 7
      vertex -6.71645 1.97213 7
      vertex -5.88877 -3.78449 7
    endloop
  endfacet
  facet normal 0 0 1
    outer loop
      vertex -5.88877 -3.78449 7
      vertex -6.71645 1.97213 7
      vertex -6.71645 -1.97213 7
    endloop
  endfacet
  facet normal 0 0 1
    outer loop
      vertex -2.9079 -6.36742 7
      vertex -6.71645 1.97213 7
      vertex -4.58402 -5.29025 7
    endloop
  endfacet
  facet normal 0 0 1
    outer loop
      vertex -0.996204 -6.92875 7
      vertex -6.71645 1.97213 7
      vertex -2.9079 -6.36742 7
    endloop
  endfacet
  facet normal 0 0 1
    outer loop
      vertex 0.996204 -6.92875 7
      vertex -6.71645 1.97213 7
      vertex -0.996204 -6.92875 7
    endloop
  endfacet
  facet normal 0 0 1
    outer loop
      vertex -2.29201 -2.64512 7
      vertex -6.71645 1.97213 7
      vertex 0.996204 -6.92875 7
    endloop
  endfacet
  facet normal 0 0 1
    outer loop
      vertex 2.94439 -1.89224 7
      vertex 5.88877 -3.78449 7
      vertex 6.0187 -3.5 7
    endloop
  endfacet
  facet normal 0 0 1
    outer loop
      vertex 3.5 0 7
      vertex 2.94439 -1.89224 7
      vertex 17.5 -3.5 7
    endloop
  endfacet
  facet normal 0 0 1
    outer loop
      vertex 2.94439 -1.89224 7
      vertex 1.45395 -3.18371 7
      vertex 5.88877 -3.78449 7
    endloop
  endfacet
  facet normal 0 0 1
    outer loop
      vertex 1.45395 3.18371 7
      vertex 17.5 3.5 7
      vertex 6.0187 3.5 7
    endloop
  endfacet
  facet normal 0 0 1
    outer loop
      vertex -0.498102 3.46437 7
      vertex 1.45395 3.18371 7
      vertex 4.58402 5.29025 7
    endloop
  endfacet
  facet normal 0 0 1
    outer loop
      vertex 2.9079 6.36742 7
      vertex -6.71645 1.97213 7
      vertex 4.58402 5.29025 7
    endloop
  endfacet
  facet normal 0 0 1
    outer loop
      vertex 0.996204 6.92875 7
      vertex -6.71645 1.97213 7
      vertex 2.9079 6.36742 7
    endloop
  endfacet
  facet normal 0 0 1
    outer loop
      vertex -0.996204 6.92875 7
      vertex -6.71645 1.97213 7
      vertex 0.996204 6.92875 7
    endloop
  endfacet
  facet normal 0 0 1
    outer loop
      vertex -2.9079 6.36742 7
      vertex -6.71645 1.97213 7
      vertex -0.996204 6.92875 7
    endloop
  endfacet
  facet normal 0 0 1
    outer loop
      vertex -4.58402 5.29025 7
      vertex -6.71645 1.97213 7
      vertex -2.9079 6.36742 7
    endloop
  endfacet
  facet normal 0 0 1
    outer loop
      vertex -5.88877 3.78449 7
      vertex -6.71645 1.97213 7
      vertex -4.58402 5.29025 7
    endloop
  endfacet
  facet normal 0 0 1
    outer loop
      vertex 1.45395 -3.18371 7
      vertex -0.498102 -3.46437 7
      vertex 2.9079 -6.36742 7
    endloop
  endfacet
  facet normal 0 0 1
    outer loop
      vertex -0.498102 3.46437 7
      vertex -6.71645 1.97213 7
      vertex -2.29201 2.64512 7
    endloop
  endfacet
  facet normal 0 0 1
    outer loop
      vertex 1.45395 3.18371 7
      vertex 6.0187 3.5 7
      vertex 5.88877 3.78449 7
    endloop
  endfacet
  facet normal 0 0 1
    outer loop
      vertex 4.58402 5.29025 7
      vertex -6.71645 1.97213 7
      vertex -0.498102 3.46437 7
    endloop
  endfacet
  facet normal 0 0 1
    outer loop
      vertex 4.58402 5.29025 7
      vertex 1.45395 3.18371 7
      vertex 5.88877 3.78449 7
    endloop
  endfacet
  facet normal 0 0 1
    outer loop
      vertex 17.5 3.5 7
      vertex 2.94439 1.89224 7
      vertex 17.5 -3.5 7
    endloop
  endfacet
  facet normal 0 0 1
    outer loop
      vertex 1.45395 3.18371 7
      vertex 2.94439 1.89224 7
      vertex 17.5 3.5 7
    endloop
  endfacet
  facet normal 0 0 1
    outer loop
      vertex 2.94439 1.89224 7
      vertex 3.5 0 7
      vertex 17.5 -3.5 7
    endloop
  endfacet
  facet normal 0 0 1
    outer loop
      vertex 17.5 -3.5 7
      vertex 2.94439 -1.89224 7
      vertex 6.0187 -3.5 7
    endloop
  endfacet
  facet normal 0 0 1
    outer loop
      vertex 5.88877 -3.78449 7
      vertex 1.45395 -3.18371 7
      vertex 4.58402 -5.29025 7
    endloop
  endfacet
  facet normal 0 0 1
    outer loop
      vertex 2.9079 -6.36742 7
      vertex -0.498102 -3.46437 7
      vertex 0.996204 -6.92875 7
    endloop
  endfacet
  facet normal 0 0 1
    outer loop
      vertex -3.35823 -0.986064 7
      vertex -6.71645 1.97213 7
      vertex -2.29201 -2.64512 7
    endloop
  endfacet
  facet normal 0 0 1
    outer loop
      vertex 1.45395 -3.18371 7
      vertex 2.9079 -6.36742 7
      vertex 4.58402 -5.29025 7
    endloop
  endfacet
  facet normal 0 0 1
    outer loop
      vertex -0.498102 -3.46437 7
      vertex -2.29201 -2.64512 7
      vertex 0.996204 -6.92875 7
    endloop
  endfacet
  facet normal 0 0 1
    outer loop
      vertex -3.35823 -0.986064 7
      vertex -3.35823 0.986064 7
      vertex -6.71645 1.97213 7
    endloop
  endfacet
  facet normal 0 0 1
    outer loop
      vertex -3.35823 0.986064 7
      vertex -2.29201 2.64512 7
      vertex -6.71645 1.97213 7
    endloop
  endfacet
endsolid OpenSCAD_Model
